<?xml version="1.0" encoding="UTF-8"?>
<svg version="1.1" xmlns="http://www.w3.org/2000/svg" width="55" height="55">
<path d="M0 0 C11.55 0 23.1 0 35 0 C33 14 33 14 29 19 C26.46630859 19.59936523 26.46630859 19.59936523 23.6484375 19.55859375 C22.63265625 19.55150391 21.616875 19.54441406 20.5703125 19.53710938 C18.98863281 19.48780273 18.98863281 19.48780273 17.375 19.4375 C15.78171875 19.42879883 15.78171875 19.42879883 14.15625 19.41992188 C6.29490041 19.29490041 6.29490041 19.29490041 4 17 C2.68 11.39 1.36 5.78 0 0 Z M13 2 C13 6.29 13 10.58 13 15 C13.99 15 14.98 15 16 15 C16 10.71 16 6.42 16 2 C15.01 2 14.02 2 13 2 Z M20 2 C20 6.29 20 10.58 20 15 C20.66 15 21.32 15 22 15 C22 10.71 22 6.42 22 2 C21.34 2 20.68 2 20 2 Z M29 2 C27.66416101 6.84241633 26.74671881 10.93437617 27 16 C29.52480693 13.47519307 29.55738633 11.86176966 30.125 8.375 C30.29257812 7.37210938 30.46015625 6.36921875 30.6328125 5.3359375 C30.75398438 4.56507812 30.87515625 3.79421875 31 3 C30.34 2.67 29.68 2.34 29 2 Z M5 3 C5.14230808 4.41702513 5.28900746 5.8336096 5.4375 7.25 C5.51871094 8.03890625 5.59992187 8.8278125 5.68359375 9.640625 C5.97634993 11.82364639 6.42064419 13.8773182 7 16 C7.66 16 8.32 16 9 16 C8.85915204 14.20793453 8.71216299 12.41635083 8.5625 10.625 C8.44068359 9.12839844 8.44068359 9.12839844 8.31640625 7.6015625 C8.15034374 5.02072387 8.15034374 5.02072387 7 3 C6.34 3 5.68 3 5 3 Z " fill="#242424" transform="translate(10,26)"/>
<path d="M0 0 C2.20703125 0.29296875 2.20703125 0.29296875 4 1 C3.40072174 4.35595828 2.15377564 6.37801226 0 9 C1.32 9.66 2.64 10.32 4 11 C4 11.66 4 12.32 4 13 C-0.63104563 13.91045727 -5.10177427 14.13279048 -9.8046875 14.09765625 C-10.5286673 14.0962413 -11.25264709 14.09482635 -11.99856567 14.09336853 C-14.29075407 14.08781075 -16.58284157 14.07526633 -18.875 14.0625 C-20.43749858 14.05747953 -21.99999871 14.05291759 -23.5625 14.04882812 C-27.37503835 14.03785519 -31.18750212 14.0206201 -35 14 C-34.67 12.68 -34.34 11.36 -34 10 C-32.35 10 -30.7 10 -29 10 C-30.65 7.69 -32.3 5.38 -34 3 C-33.67 2.34 -33.34 1.68 -33 1 C-30.875 1.0625 -30.875 1.0625 -28 2 C-26.61328125 3.625 -26.61328125 3.625 -25.1875 5.5625 C-22.66408428 8.72000479 -22.35163513 8.94976641 -18.0625 9.5625 C-16.70256187 9.42288658 -15.34659893 9.2357858 -14 9 C-12.2365625 8.7215625 -12.2365625 8.7215625 -10.4375 8.4375 C-6.42031371 6.75758573 -4.43892947 4.65399953 -1.67578125 1.36328125 C-1.12277344 0.91339844 -0.56976563 0.46351562 0 0 Z " fill="#303030" transform="translate(43,11)"/>
<path d="M0 0 C1.98 0 3.96 0 6 0 C6.07654536 4.51617599 6.10228696 8.59085217 5 13 C4.01 13.33 3.02 13.66 2 14 C1.67 14.66 1.34 15.32 1 16 C0.34 15.67 -0.32 15.34 -1 15 C-0.67515625 13.96939453 -0.67515625 13.96939453 -0.34375 12.91796875 C-0.0653125 12.01691406 0.213125 11.11585937 0.5 10.1875 C0.7784375 9.29417969 1.056875 8.40085937 1.34375 7.48046875 C2.12788351 4.94426605 2.12788351 4.94426605 2 2 C1.01 2.495 1.01 2.495 0 3 C0 2.01 0 1.02 0 0 Z " fill="#484848" transform="translate(38,27)"/>
<path d="M0 0 C4.29 0 8.58 0 13 0 C13 0.33 13 0.66 13 1 C11.35 1.33 9.7 1.66 8 2 C7.67 2.99 7.34 3.98 7 5 C7 4.34 7 3.68 7 3 C6.34 3 5.68 3 5 3 C5 4.32 5 5.64 5 7 C4.34 7 3.68 7 3 7 C2.67 7.66 2.34 8.32 2 9 C1.34 6.03 0.68 3.06 0 0 Z " fill="#353535" transform="translate(10,26)"/>
</svg>
